PathFileType	4	(X/Y/Z)	OpenSim_Sub02_CSBaseline_Accel.trc
DataRate	CameraRate	NumFrames	NumMarkers	Units	OrigDataRate	OrigDataStartFrame	OrigNumFrames
100	100	31	8	m	100	883	7057
Frame#	Time	torso_imu_offset_imu	pelvis_imu_offset_imu	tibia_r_imu_offset_imu	femur_r_imu_offset_imu	tibia_l_imu_offset_imu	femur_l_imu_offset_imu	toes_r_imu_offset_imu	toes_l_imu_offset_imu
				X1	Y1	Z1	X2	Y2	Z2	X3	Y3	Z3	X4	Y4	Z4	X5	Y5	Z5	X6	Y6	Z6	X7	Y7	Z7	X8		Y8	Z8	

883	8.82000000	7.47698217	0.44596196	6.65696984	9.11257919	-1.67583035	2.27339210	4.34675947	3.20735150	4.38990114	7.41072893	-2.40795396	2.23938826	9.31212429	-1.08295503	-0.11630212	8.90643239	1.23538691	-1.78588718	4.21020372	6.73299821	10.18322501	3.35860764	1.62512797	11.62057011
884	8.83000000	7.52312864	0.49026599	6.65007321	9.12336989	-1.52703863	2.32990087	4.94614903	3.38545040	4.02840364	7.25824507	-2.55621993	2.24121975	9.38705273	-1.42701257	-0.13631327	8.92008018	0.97825124	-1.50821667	3.74975690	6.38427997	9.47942959	3.81274387	1.65921252	11.63493269
885	8.84000000	7.61055130	0.57344192	6.73813525	9.07339019	-1.37702988	2.37683275	5.41258266	3.79570305	3.16605518	7.26958655	-2.66116298	2.24444166	9.46573167	-1.00733751	-0.01220128	9.01650625	0.58083780	-1.30479804	4.33394378	5.34580882	9.04484601	4.11354439	1.48583127	11.58458737
886	8.85000000	7.66876942	0.59104578	6.80021437	9.05145610	-1.16879519	2.37301787	5.64918951	4.06188995	2.95079866	7.26595420	-2.75241025	2.30860031	9.42900872	-0.43749512	0.46848613	9.12485392	0.23385688	-1.23734473	5.37832273	4.28221343	9.06882553	3.67606344	1.29503766	11.43334019
887	8.86000000	7.58912497	0.68208799	6.82725799	8.84867230	-1.07536489	2.35033548	5.95125519	4.17111718	3.28957519	7.26677610	-2.76220510	2.46952809	9.42218615	-0.48641351	0.89241878	9.36921473	0.16109642	-1.45267954	5.95161080	3.70161174	9.26104556	2.95014470	1.39076325	11.84929402
888	8.87000000	7.56533496	0.80107543	6.93855253	8.70358815	-0.97035641	2.31067498	6.13636607	4.53987548	3.52737806	7.27240233	-2.52708324	2.64735746	9.44961766	-0.57876652	0.96728883	9.48087095	-0.34329409	-1.62747489	6.45407207	3.46201814	9.45704117	3.30864438	1.47992694	11.71734007
889	8.88000000	7.67517810	0.91943836	7.02772933	8.57039059	-1.03407687	2.20749286	6.53735680	5.22322263	3.91991569	7.28415531	-2.13440549	2.62828852	9.54352803	-0.61473969	0.82180039	9.50402864	-0.27479789	-1.91535894	7.04095199	2.84501300	9.86405447	3.91329720	1.20754992	11.70702512
890	8.89000000	7.93045766	0.98438822	7.11955008	8.58792790	-0.99190758	2.08555926	7.49004417	6.20837368	4.00146216	7.23135324	-2.05642006	2.60695634	9.67579228	-0.91961866	1.09071892	9.29757069	-0.20217933	-2.14640698	7.86240573	1.85069516	10.66894306	3.87400333	1.00265934	11.76391580
891	8.90000000	8.18677940	1.03201613	7.17732186	8.62367059	-1.13555383	1.97358353	8.02036667	7.59736537	3.41976911	7.17087118	-1.91387356	2.64884486	9.58662411	-1.38318224	1.28229122	9.26359223	-0.29092528	-2.34765392	8.53339112	0.84694468	11.38909923	3.70350538	0.98402468	11.91288046
892	8.91000000	8.27843152	0.97895689	7.22774038	8.73309561	-1.28628996	1.79651737	8.04711229	8.76690470	2.68062307	7.17055710	-1.83490640	2.75027982	9.53527940	-1.64278163	1.27103185	9.17262397	-0.26657529	-2.36834225	9.18056681	0.66319141	12.10339642	3.21291010	1.09923208	11.93176656
893	8.92000000	8.25691557	0.92990050	7.25476435	8.83695667	-1.51834666	1.70909774	8.30709469	7.83777049	2.63635419	7.07353438	-1.94002322	2.88607751	9.58447466	-1.72816658	1.03173169	9.29042733	-0.40876494	-2.26540401	10.36174865	0.70712462	12.78375296	3.38229675	1.00136145	11.87491732
894	8.93000000	8.19585158	0.85760618	7.30684365	9.00202289	-1.70047864	1.64071737	8.65750659	4.81298486	3.43675576	7.09413781	-2.14767802	3.07443801	9.70918714	-1.59781393	0.81688364	9.34177833	-0.62880746	-2.22038827	12.22979312	0.66708703	13.40760575	3.57073318	0.86231407	11.85517913
895	8.94000000	8.22774966	0.83106135	7.42598616	9.21821254	-1.78161472	1.53146792	8.68696761	1.38742440	4.53980517	7.20588516	-2.48881250	3.29583797	9.76857988	-1.59990858	0.77686030	9.37207525	-0.71560073	-2.11600822	14.32198816	0.34284702	13.83451100	3.46352981	0.90615908	11.87197715
896	8.95000000	8.34315132	0.75386288	7.49949862	9.32525136	-1.85275298	1.58450977	8.87704985	-1.30635748	5.23760617	7.44106348	-2.94509812	3.45646820	9.66018969	-1.84657263	0.51719244	9.49731429	-0.86766060	-2.12062585	15.53370564	-0.22788366	13.53169502	3.10964491	0.95111480	12.12020230
897	8.96000000	8.36505262	0.65900249	7.54824029	9.41770170	-1.82851955	1.59595161	9.87948214	-2.53209024	4.81816853	7.86700636	-3.51077016	3.52907026	9.69525967	-1.93902561	0.27546005	9.38243368	-0.85541466	-2.19778464	15.64734680	-0.44142291	12.45437392	3.53459395	0.99985838	11.84158401
898	8.97000000	8.38669947	0.59066828	7.55545701	9.47520801	-1.63256726	1.56109659	11.30417659	-2.27419558	3.66007520	8.35667155	-3.96676463	3.55779070	9.75711611	-2.04072541	0.44536986	9.21600022	-0.84154964	-2.24758682	15.33345477	-0.55614680	10.91986791	4.14409263	0.63886047	11.62369508
899	8.98000000	8.40503293	0.56890373	7.53668222	9.36725605	-1.55924382	1.58732671	12.12849996	-1.16196994	2.55288437	8.73473012	-4.26388034	3.54698798	9.80495516	-1.66839857	0.51749230	9.31618501	-0.88973126	-2.35833959	15.19215367	-1.18834763	9.44566139	3.95719119	0.72972759	11.68595725
900	8.99000000	8.35243469	0.52967246	7.50887837	9.36677886	-1.42492619	1.56596816	12.37644376	0.21366115	0.94640433	8.97505282	-4.51146428	3.51273828	9.83256950	-1.27897923	0.19638612	9.19415922	-0.81098116	-2.45819669	15.09368304	-0.53319445	8.30857826	3.77656001	0.75342834	11.86367106
901	9.00000000	8.31913156	0.46712316	7.45311394	9.37751476	-1.47265093	1.67800895	13.17452505	1.16555336	-0.18202077	8.94322552	-5.07618865	3.48871376	9.79388060	-1.06679282	-0.22777292	9.07654384	-0.66759699	-2.67065424	14.48981307	1.80001326	7.66167235	3.03105103	1.04310265	11.93343548
902	9.01000000	8.31612591	0.44136228	7.50500165	9.51128448	-1.65114918	1.85663902	14.02254529	2.22584342	1.68599524	8.45232333	-6.08885548	3.95639376	9.83832561	-0.75648149	-0.33522695	9.26090190	-0.44172155	-2.79172182	14.16866160	2.01786437	6.93679588	3.29149852	1.10109439	11.86033567
903	9.02000000	8.33167355	0.38796517	7.52229480	9.64521792	-1.90289016	2.01307722	13.22139033	3.36237881	2.04075744	8.06547061	-7.38116972	4.81161686	10.05955670	-0.29103976	-0.24415651	9.28693812	-0.05753051	-2.95264995	14.56314607	3.34043652	5.64705988	3.62514058	1.03446079	11.92718297
904	9.03000000	8.44070651	0.25149221	7.56246770	9.59456923	-1.93685001	2.17827794	11.06808179	2.67920649	0.98468024	8.20608413	-8.76332059	5.18310271	10.25833896	-0.34616999	-0.17284267	9.09845940	0.38102914	-3.02292566	15.00465901	5.48171892	3.63427915	3.61457705	0.85535221	11.89971865
905	9.04000000	8.68162647	0.11879405	7.52286204	9.54011842	-1.95160498	2.28267351	8.59274381	0.50738315	3.04509916	8.73666694	-9.73057268	4.67629689	10.29695124	-0.52885899	-0.35628477	8.85349209	0.64030931	-2.95704266	14.82678045	5.36590181	0.57757744	3.34847262	0.86763542	12.09095252
906	9.05000000	8.89514496	0.13131490	7.54415644	9.57739064	-1.84288354	2.43807886	7.44315798	-1.78072170	2.92558066	9.52464575	-9.68845817	3.58454206	10.25023476	-0.68632269	-0.46484356	8.83810272	0.48574127	-2.93872158	14.83582830	7.16570105	-2.14766538	3.29881383	1.17105989	12.05182386
907	9.06000000	9.00946030	0.22829276	7.53200467	9.47529372	-1.88909749	2.45493658	7.89578961	-3.99338159	1.06121200	10.07964921	-8.74338054	3.03574721	10.25119259	-0.59833530	-0.62488878	8.94349224	0.25141317	-3.04429834	15.83006315	8.03148935	-4.33453832	3.61812204	1.23148720	12.00567226
908	9.07000000	8.99865466	0.29887582	7.49460927	9.31367682	-1.95895990	2.19497574	9.09115165	-5.21210228	0.17263557	10.03873429	-7.37818736	3.29354352	10.49181021	-0.35770987	-0.41164340	8.95103400	0.05217855	-3.33925196	16.26634298	6.88879353	-5.85982148	3.65924012	0.89266299	12.06349604
909	9.08000000	8.87153251	0.34085633	7.44157162	9.08653736	-2.03078444	1.95745190	9.67200380	-4.60626369	0.21779323	9.45914372	-6.05958533	3.77322833	10.66563213	-0.25559719	-0.22959414	8.92788891	0.07597086	-3.49989809	15.97416433	4.27735500	-6.09081525	3.67492524	0.72226522	12.20670722
910	9.09000000	8.72575572	0.35219741	7.30020056	8.89763337	-2.13399026	1.68897181	8.77642462	-2.67433761	0.07248138	8.83916528	-4.63302745	4.06735856	10.49483833	-0.34636086	0.14173845	8.90539264	-0.12640293	-3.34820414	14.74852684	3.18247141	-4.95143631	3.23661454	0.89603631	12.33992253
911	9.10000000	8.56678777	0.37095126	7.14760569	8.76663096	-2.20465759	1.42766866	7.82219606	-0.87082533	0.42075773	8.06873177	-3.79967007	3.84448728	10.09087252	-0.39327661	0.43269354	8.89093059	-0.36559898	-3.10210987	13.81185309	2.92213961	-2.47572568	3.58721606	0.75865181	12.30933676
912	9.11000000	8.46684349	0.41564026	7.04724445	8.73582143	-2.41876785	1.18527138	7.50677805	0.22394334	1.14178564	7.14555545	-3.48814956	3.35969928	10.08468885	-0.53710415	0.75155947	9.10067381	-0.51780651	-2.77970577	10.08665515	1.69104831	-0.49562227	3.51458670	0.74107956	12.52837208
913	9.12000000	8.39203926	0.48599523	6.83669261	8.82811217	-2.73031856	0.98987195	7.55248017	0.96314495	1.37237512	6.52978266	-3.45334245	3.16231664	10.54178914	-0.84002220	1.33896069	9.21705053	-0.52590734	-2.70684347	5.27299060	2.07858962	10.05124006	3.31241606	0.70590915	12.72513600
